<?xml version="1.0" standalone="no"?>
<!DOCTYPE svg PUBLIC "-//W3C//DTD SVG 20010904//EN"
 "http://www.w3.org/TR/2001/REC-SVG-20010904/DTD/svg10.dtd">
<svg version="1.0" xmlns="http://www.w3.org/2000/svg"
 width="500.000000pt" height="500.000000pt" viewBox="0 0 500.000000 500.000000"
 preserveAspectRatio="xMidYMid meet">

<g transform="translate(0.000000,500.000000) scale(0.100000,-0.100000)"
fill="#000000" stroke="none">
<path d="M1873 2643 c-24 -5 -63 -47 -63 -68 0 -27 39 -59 96 -79 61 -22 77
-43 54 -71 -7 -9 -29 -15 -51 -15 -30 0 -42 5 -55 25 -9 14 -23 25 -30 25 -22
0 -16 -29 11 -55 35 -36 115 -36 151 1 20 19 24 31 19 52 -9 37 -13 40 -86 67
-50 18 -65 28 -67 45 -5 28 13 40 61 40 30 0 40 -5 49 -25 12 -28 38 -34 38
-9 0 28 -19 52 -51 63 -33 11 -37 11 -76 4z"/>
<path d="M980 2510 l0 -130 69 0 c58 0 72 3 95 25 31 29 33 53 7 86 -17 22
-17 27 -5 44 20 27 17 61 -8 85 -17 16 -35 20 -90 20 l-68 0 0 -130z m134 84
c19 -18 19 -20 6 -45 -8 -15 -22 -19 -60 -19 l-50 0 0 40 0 40 44 0 c27 0 51
-6 60 -16z m-3 -104 c11 -6 19 -21 19 -35 0 -30 -26 -45 -79 -45 l-41 0 0 45
0 45 41 0 c22 0 49 -5 60 -10z"/>
<path d="M1260 2510 c0 -109 2 -130 15 -130 11 0 15 12 15 45 0 43 1 45 30 45
23 0 35 -9 60 -45 19 -28 39 -45 51 -45 18 0 17 4 -12 46 l-32 47 21 16 c49
37 46 117 -4 140 -14 6 -52 11 -84 11 l-60 0 0 -130z m134 84 c19 -18 21 -55
4 -72 -7 -7 -34 -12 -60 -12 l-48 0 0 50 0 50 44 0 c27 0 51 -6 60 -16z"/>
<path d="M1567 2528 c-65 -158 -62 -148 -42 -148 9 0 22 13 28 30 11 29 14 30
74 30 59 0 63 -2 78 -30 15 -28 53 -44 42 -17 -68 174 -103 247 -118 247 -11
0 -30 -32 -62 -112z m92 -5 l21 -53 -51 0 c-28 0 -49 4 -47 8 2 4 12 31 22 60
11 29 23 49 27 45 4 -5 17 -32 28 -60z"/>
<path d="M2100 2510 c0 -109 2 -130 15 -130 13 0 15 21 15 130 0 109 -2 130
-15 130 -13 0 -15 -21 -15 -130z"/>
<path d="M2240 2510 l0 -130 80 0 c64 0 80 3 80 15 0 12 -14 15 -65 15 l-65 0
0 115 c0 96 -3 115 -15 115 -13 0 -15 -21 -15 -130z"/>
</g>
</svg>
